<?xml version="1.0" encoding="utf-8"?>
<!-- Generator: Adobe Illustrator 26.0.3, SVG Export Plug-In . SVG Version: 6.00 Build 0)  -->
<svg version="1.1" id="Capa_1" xmlns="http://www.w3.org/2000/svg" xmlns:xlink="http://www.w3.org/1999/xlink" x="0px" y="0px"
	 viewBox="0 0 1024 1024" style="enable-background:new 0 0 1024 1024; fill:white" xml:space="preserve">
<path d="M442.9,64H101.1C80.6,64,64,80.6,64,101.1v341.7c0,20.5,16.6,37.1,37.1,37.1h341.7c20.5,0,37.1-16.6,37.1-37.1V101.1
	C480,80.6,463.4,64,442.9,64z M448,408c0,20.5-16.6,37.1-37.1,37.1H133.1c-20.5,0-37.1-16.6-37.1-37.1V133.1
	c0-20.5,16.6-37.1,37.1-37.1h277.7c20.5,0,37.1,16.6,37.1,37.1V408z"/>
<rect x="640" y="64" width="128" height="416"/>
<path d="M865.5,128c38.6,35.8,40.9,97.1,5,135.7s-97.1,40.9-135.7,5L865.5,128z"/>
<path d="M442.9,544H101.1C80.6,544,64,560.6,64,581.1v341.7c0,20.5,16.6,37.1,37.1,37.1h341.7c20.5,0,37.1-16.6,37.1-37.1V581.1
	C480,560.6,463.4,544,442.9,544z M448,888c0,20.5-16.6,37.1-37.1,37.1H133.1c-20.5,0-37.1-16.6-37.1-37.1V613.1
	c0-20.5,16.6-37.1,37.1-37.1h277.7c20.5,0,37.1,16.6,37.1,37.1V888z"/>
<path d="M922.9,544H581.1c-20.5,0-37.1,16.6-37.1,37.1v341.7c0,20.5,16.6,37.1,37.1,37.1h341.7c20.5,0,37.1-16.6,37.1-37.1V581.1
	C960,560.6,943.4,544,922.9,544z M928,888c0,20.5-16.6,37.1-37.1,37.1H613.1c-20.5,0-37.1-16.6-37.1-37.1V613.1
	c0-20.5,16.6-37.1,37.1-37.1h277.7c20.5,0,37.1,16.6,37.1,37.1V888z"/>
<path d="M874.9,592H629.1c-20.5,0-37.1,16.6-37.1,37.1v245.7c0,20.5,16.6,37.1,37.1,37.1h245.7c20.5,0,37.1-16.6,37.1-37.1V629.1
	C912,608.6,895.4,592,874.9,592z M748.5,641.2c2.6,0,5.2,0.5,7.5,1.5c1.7-6.7,7.3-11.5,13.9-11.5c7.4,0,13.5,6.1,14.4,13.9
	c1-0.2,2-0.2,3.1-0.2c11.8,0,21.4,10.5,21.4,23.5c0,10-5.6,18.5-13.6,21.9c-1.4,8.4-7.8,14.7-15.4,14.7c-1.8,0-3.5-0.4-5.1-1v42
	h-14.6v-41.2c-0.8,0.1-1.7,0.2-2.5,0.2c-11.2,0-20.5-9.4-21.6-21.4c-5.2-4.3-8.6-11.1-8.6-18.8C727.2,651.7,736.7,641.2,748.5,641.2
	z M678.7,783.3l-49.1-18.8c-3-1.2-4.6-4.8-3.6-8.2c0.8-2.7,3.1-4.3,5.5-4.3c0.6,0,1.3,0.1,1.9,0.4l45.3,17.3V783.3z M712.6,845.7
	l-24.9,7.3c-3.5,1-6.6-2.4-5.8-6.2l6.2-29.5c0.1-0.7,0.4-1.3,0.7-1.8l4.7,5.6l-3.3,15.9c-0.8,3.8,2.4,7.2,5.8,6.2l12.9-3.8l4.9,5.8
	C713.5,845.4,713.1,845.6,712.6,845.7z M833.8,861.6c-7.3,0-13.2-6.5-13.2-14.6c0-8,5.9-14.6,13.2-14.6S847,839,847,847.1
	C847,855.1,841.1,861.6,833.8,861.6z M869.7,765.1c-0.1,0.1-0.1,0.2-0.2,0.3l-67.6,74.3h-73.7l-36.8-40.5v-40.5h175.8
	c1.9,0,3.5,1.7,3.5,3.9C870.6,763.6,870.2,764.5,869.7,765.1z"/>
<path d="M394.9,592H149.1c-20.5,0-37.1,16.6-37.1,37.1v245.8c0,20.5,16.6,37.1,37.1,37.1h245.7c20.5,0,37.1-16.6,37.1-37.1V629.1
	C432,608.6,415.4,592,394.9,592z M206.7,862.5c-6.6,7.4-17.9,8.1-25.3,1.5l-1.9-1.7c-7.4-6.6-8.1-17.9-1.5-25.3l116.7-131.2
	l28.7,25.5L206.7,862.5z M386.2,718.8l-16.8,18.9c-5,5.7-13.7,6.2-19.4,1.2l-68.8-61.2c-5.7-5-6.2-13.7-1.1-19.4l16.8-18.9
	c5.1-5.7,13.7-6.2,19.4-1.1l68.8,61.2C390.7,704.4,391.2,713.1,386.2,718.8z"/>
<path d="M394.9,112H149.1c-20.5,0-37.1,16.6-37.1,37.1v245.8c0,20.5,16.6,37.1,37.1,37.1h245.7c20.5,0,37.1-16.6,37.1-37.1V149.1
	C432,128.6,415.4,112,394.9,112z M247.6,296.4l-3.3-3.5c-1.7-1.8-1.6-4.6,0.2-6.3l2.5-2.4L158,190.9c-5.7-6-5.5-15.5,0.5-21.3
	l13.7-13.1c6-5.7,15.5-5.5,21.3,0.5l88.9,93.3l1.9-1.8c1.8-1.7,4.6-1.6,6.3,0.2l3.3,3.5c1.7,1.8,1.6,4.6-0.2,6.3l-39.8,38
	C252.2,298.3,249.3,298.2,247.6,296.4z M369.8,383.8l-12.6-6.8l0,0l-6.1-6.4l-1-6.5l0.1-0.1L279,289.4l9.7-9.3l71.2,74.7l0,0l6.9,2
	l0,0l6.3,6.6l0,0l5.7,11.7L369.8,383.8z"/>
<polygon points="360,353.4 360,353.4 359.9,353.4 "/>
</svg>
